<svg width="476" height="400" viewBox="0 0 476 400" fill="none" xmlns="http://www.w3.org/2000/svg">
<path d="M179.888 248.476C179.888 248.476 124.473 321.815 66.0814 348.455H135.36C135.36 348.455 178.803 288.908 179.853 248.476H179.888Z" fill="url(#paint0_linear_1_224)"/>
<path style="mix-blend-mode:multiply" d="M96.5723 348.455H135.395C135.395 348.455 166.621 305.677 176.773 268.009L179.888 248.476C148.767 308.267 114.251 336.798 96.5723 348.455Z" fill="url(#paint1_linear_1_224)"/>
<path d="M212.374 165.79C212.374 165.79 175.827 289.818 111.66 348.455H170.681C170.681 348.455 214.265 222.746 212.374 165.79Z" fill="url(#paint2_linear_1_224)"/>
<path style="mix-blend-mode:multiply" d="M170.681 348.455C170.681 348.455 191.825 287.438 204.043 231.147L212.374 165.79C190.6 266.119 153.248 327.661 139.035 348.455H170.681Z" fill="url(#paint3_linear_1_224)"/>
<path d="M226.552 94.0609C226.552 94.0609 198.302 269.48 149.537 348.455H201.522C201.522 348.455 220.776 193.97 221.406 180.528C222.036 167.085 226.587 94.0609 226.587 94.0609H226.552Z" fill="url(#paint4_linear_1_224)"/>
<path d="M282.073 248.476C282.073 248.476 337.488 321.815 395.88 348.455H326.601C326.601 348.455 283.158 288.908 282.108 248.476H282.073Z" fill="url(#paint5_linear_1_224)"/>
<path style="mix-blend-mode:multiply" d="M365.389 348.455H326.566C326.566 348.455 295.34 305.677 285.188 268.009L282.073 248.476C313.194 308.267 347.71 336.798 365.389 348.455Z" fill="url(#paint6_linear_1_224)"/>
<path d="M249.586 165.79C249.586 165.79 286.133 289.818 350.301 348.455H291.279C291.279 348.455 247.696 222.746 249.586 165.79Z" fill="url(#paint7_linear_1_224)"/>
<path style="mix-blend-mode:multiply" d="M291.28 348.455C291.28 348.455 270.135 287.438 257.918 231.147L249.587 165.79C271.361 266.119 308.713 327.661 322.926 348.455H291.28Z" fill="url(#paint8_linear_1_224)"/>
<path d="M235.444 94.0609C235.444 94.0609 263.694 269.48 312.459 348.455H260.474C260.474 348.455 241.22 193.97 240.59 180.528C239.96 167.085 235.409 94.0609 235.409 94.0609H235.444Z" fill="url(#paint9_linear_1_224)"/>
<path d="M231.033 36.1949V34.5846C231.033 34.5846 231.033 34.8646 230.998 35.3897C230.998 34.8646 230.963 34.5846 230.963 34.5846V36.1949C229.668 56.9889 215.315 274.731 183.529 348.455H278.467C246.716 274.731 232.363 56.9539 231.033 36.1949Z" fill="url(#paint10_linear_1_224)"/>
<path d="M231.033 36.1949V348.455H278.467C246.716 274.731 232.363 56.9889 231.033 36.1949Z" fill="url(#paint11_linear_1_224)"/>
<path style="mix-blend-mode:screen" d="M231.033 36.1949V34.5846C231.033 34.5846 231.033 34.5846 231.033 34.6546V36.1949C232.223 56.9889 245.211 274.731 273.951 348.455H278.467C246.716 274.731 232.363 56.9539 231.033 36.1949ZM230.928 34.5846V36.1949C229.633 56.9889 215.28 274.731 183.494 348.455H188.01C216.75 274.731 229.738 56.9539 230.928 36.1949V34.6546V34.5846Z" fill="url(#paint12_linear_1_224)"/>
<path d="M250.252 263.109L230.998 340.858L211.814 263.109H250.252Z" fill="url(#paint13_linear_1_224)"/>
<path d="M250.217 259.503H211.814V263.108H250.217V259.503Z" fill="url(#paint14_linear_1_224)"/>
<path style="mix-blend-mode:screen" d="M250.217 259.503H211.814V260.273H250.217V259.503Z" fill="url(#paint15_linear_1_224)"/>
<path d="M45.3513 347.635C45.3513 347.635 88.9769 350.02 109.285 354.512C129.592 359.004 127.809 364.076 127.809 364.076V257.999C127.809 257.999 129.592 252.928 109.285 248.435C88.9769 243.943 45.3513 241.558 45.3513 241.558V347.635Z" fill="url(#paint16_linear_1_224)"/>
<path d="M99.2811 275.62C99.2811 275.62 99.4201 269.345 111.669 266.057C123.919 262.769 126.605 260.685 127.809 257.999V296.553C127.809 296.553 100.624 297.155 99.2811 275.643V275.62Z" fill="url(#paint17_linear_1_224)"/>
<path d="M416.47 347.635C416.47 347.635 372.844 350.02 352.536 354.512C332.229 359.004 334.012 364.076 334.012 364.076V257.999C334.012 257.999 332.229 252.928 352.536 248.435C372.844 243.943 416.47 241.558 416.47 241.558V347.635Z" fill="url(#paint18_linear_1_224)"/>
<path d="M362.169 275.111C362.169 275.111 362.03 268.836 349.781 265.548C337.531 262.259 334.845 260.175 333.641 257.489V296.044C333.641 296.044 360.826 296.646 362.169 275.134V275.111Z" fill="url(#paint19_linear_1_224)"/>
<path d="M356.565 283.401C331.696 296.183 230.922 294.446 230.922 294.446C230.922 294.446 130.148 296.159 105.279 283.401C105.279 283.401 100.346 281.618 99.3043 275.643V381.118C100.346 387.092 105.279 388.875 105.279 388.875C130.148 401.657 230.922 399.921 230.922 399.921C230.922 399.921 331.696 401.634 356.565 388.875C356.565 388.875 361.498 387.092 362.54 381.118V275.643C361.498 281.618 356.565 283.401 356.565 283.401Z" fill="url(#paint20_linear_1_224)"/>
<path d="M254.12 371.617C266.952 358.785 266.952 337.981 254.12 325.149C241.288 312.317 220.484 312.317 207.652 325.149C194.82 337.981 194.82 358.785 207.652 371.617C220.484 384.449 241.288 384.449 254.12 371.617Z" fill="#F30200"/>
<path d="M416.302 224.792L405.168 217.838L388.273 244.886L399.407 251.84L416.302 224.792Z" fill="url(#paint21_linear_1_224)"/>
<path d="M464.212 149.382L458.244 153.735L468.787 168.187L474.754 163.834L464.212 149.382Z" fill="url(#paint22_linear_1_224)"/>
<path d="M320.665 11.7524L314.539 11.6957L314.402 26.538L320.528 26.5946L320.665 11.7524Z" fill="url(#paint23_linear_1_224)"/>
<path d="M93.9628 312.026L87.5205 313.534L91.1895 329.213L97.6317 327.706L93.9628 312.026Z" fill="url(#paint24_linear_1_224)"/>
<path d="M334.519 126.603L330.724 132.023L343.915 141.259L347.71 135.839L334.519 126.603Z" fill="url(#paint25_linear_1_224)"/>
<path d="M108.115 158.172L104.32 163.592L117.511 172.829L121.306 167.409L108.115 158.172Z" fill="url(#paint26_linear_1_224)"/>
<path d="M461.823 297.428L458.028 302.848L471.219 312.085L475.014 306.665L461.823 297.428Z" fill="url(#paint27_linear_1_224)"/>
<path d="M160.872 -2.99337e-05L154.828 8.63138L175.791 23.3091L181.834 14.6777L160.872 -2.99337e-05Z" fill="url(#paint28_linear_1_224)"/>
<path d="M3.9431 145.885L9.4425 149.929L19.2729 136.562L13.7735 132.517L3.9431 145.885Z" fill="url(#paint29_linear_1_224)"/>
<path d="M0.985827 280.967L10.0206 285.969L22.1439 264.071L13.1091 259.069L0.985827 280.967Z" fill="url(#paint30_linear_1_224)"/>
<defs>
<linearGradient id="paint0_linear_1_224" x1="124.228" y1="370.684" x2="122.932" y2="295.14" gradientUnits="userSpaceOnUse">
<stop stop-color="white"/>
<stop offset="0.25" stop-color="#F0F0F0"/>
<stop offset="0.74" stop-color="#CACACA"/>
<stop offset="1" stop-color="#B3B3B3"/>
</linearGradient>
<linearGradient id="paint1_linear_1_224" x1="116.176" y1="353.706" x2="146.912" y2="290.274" gradientUnits="userSpaceOnUse">
<stop stop-color="white" stop-opacity="0"/>
<stop offset="1" stop-color="#C2C2C2"/>
</linearGradient>
<linearGradient id="paint2_linear_1_224" x1="158.289" y1="361.757" x2="163.435" y2="222.851" gradientUnits="userSpaceOnUse">
<stop stop-color="white"/>
<stop offset="0.39" stop-color="#DBDBDB"/>
<stop offset="0.78" stop-color="#BEBEBE"/>
<stop offset="1" stop-color="#B3B3B3"/>
</linearGradient>
<linearGradient id="paint3_linear_1_224" x1="148.277" y1="346.319" x2="196.061" y2="247.74" gradientUnits="userSpaceOnUse">
<stop stop-color="white" stop-opacity="0"/>
<stop offset="1" stop-color="#C2C2C2"/>
</linearGradient>
<linearGradient id="paint4_linear_1_224" x1="184.509" y1="363.473" x2="188.99" y2="182.978" gradientUnits="userSpaceOnUse">
<stop stop-color="white"/>
<stop offset="1" stop-color="#B3B3B3"/>
</linearGradient>
<linearGradient id="paint5_linear_1_224" x1="337.733" y1="370.684" x2="339.029" y2="295.14" gradientUnits="userSpaceOnUse">
<stop stop-color="white"/>
<stop offset="0.25" stop-color="#F0F0F0"/>
<stop offset="0.74" stop-color="#CACACA"/>
<stop offset="1" stop-color="#B3B3B3"/>
</linearGradient>
<linearGradient id="paint6_linear_1_224" x1="345.785" y1="353.706" x2="315.049" y2="290.274" gradientUnits="userSpaceOnUse">
<stop stop-color="white" stop-opacity="0"/>
<stop offset="1" stop-color="#C2C2C2"/>
</linearGradient>
<linearGradient id="paint7_linear_1_224" x1="303.672" y1="361.757" x2="298.561" y2="222.851" gradientUnits="userSpaceOnUse">
<stop stop-color="white"/>
<stop offset="0.39" stop-color="#DBDBDB"/>
<stop offset="0.78" stop-color="#BEBEBE"/>
<stop offset="1" stop-color="#B3B3B3"/>
</linearGradient>
<linearGradient id="paint8_linear_1_224" x1="313.684" y1="346.319" x2="265.9" y2="247.74" gradientUnits="userSpaceOnUse">
<stop stop-color="white" stop-opacity="0"/>
<stop offset="1" stop-color="#C2C2C2"/>
</linearGradient>
<linearGradient id="paint9_linear_1_224" x1="277.487" y1="363.473" x2="273.006" y2="182.978" gradientUnits="userSpaceOnUse">
<stop stop-color="white"/>
<stop offset="1" stop-color="#B3B3B3"/>
</linearGradient>
<linearGradient id="paint10_linear_1_224" x1="230.998" y1="392.388" x2="230.998" y2="96.6865" gradientUnits="userSpaceOnUse">
<stop stop-color="white"/>
<stop offset="0.21" stop-color="#FAFAFA"/>
<stop offset="0.46" stop-color="#ECECEC"/>
<stop offset="0.71" stop-color="#D5D5D5"/>
<stop offset="0.98" stop-color="#B5B5B5"/>
<stop offset="1" stop-color="#B3B3B3"/>
</linearGradient>
<linearGradient id="paint11_linear_1_224" x1="254.733" y1="396.239" x2="254.733" y2="200.551" gradientUnits="userSpaceOnUse">
<stop stop-color="white" stop-opacity="0"/>
<stop offset="1" stop-color="#C2C2C2"/>
</linearGradient>
<linearGradient id="paint12_linear_1_224" x1="230.998" y1="392.388" x2="230.998" y2="96.6865" gradientUnits="userSpaceOnUse">
<stop stop-color="white"/>
<stop offset="0.21" stop-color="#FAFAFA"/>
<stop offset="0.46" stop-color="#ECECEC"/>
<stop offset="0.71" stop-color="#D5D5D5"/>
<stop offset="0.98" stop-color="#B5B5B5"/>
<stop offset="1" stop-color="#B3B3B3"/>
</linearGradient>
<linearGradient id="paint13_linear_1_224" x1="231.033" y1="322.865" x2="231.033" y2="267.274" gradientUnits="userSpaceOnUse">
<stop stop-color="white" stop-opacity="0"/>
<stop offset="1" stop-color="#C2C2C2"/>
</linearGradient>
<linearGradient id="paint14_linear_1_224" x1="230.998" y1="257.192" x2="231.103" y2="266.924" gradientUnits="userSpaceOnUse">
<stop stop-color="white"/>
<stop offset="0.21" stop-color="#FAFAFA"/>
<stop offset="0.46" stop-color="#ECECEC"/>
<stop offset="0.71" stop-color="#D5D5D5"/>
<stop offset="0.98" stop-color="#B5B5B5"/>
<stop offset="1" stop-color="#B3B3B3"/>
</linearGradient>
<linearGradient id="paint15_linear_1_224" x1="231.033" y1="258.628" x2="231.068" y2="261.568" gradientUnits="userSpaceOnUse">
<stop stop-color="white"/>
<stop offset="0.21" stop-color="#FAFAFA"/>
<stop offset="0.46" stop-color="#ECECEC"/>
<stop offset="0.71" stop-color="#D5D5D5"/>
<stop offset="0.98" stop-color="#B5B5B5"/>
<stop offset="1" stop-color="#B3B3B3"/>
</linearGradient>
<linearGradient id="paint16_linear_1_224" x1="47.9448" y1="295.743" x2="141.772" y2="309.474" gradientUnits="userSpaceOnUse">
<stop stop-color="#3C916A"/>
<stop offset="0.53" stop-color="#1D4A35"/>
<stop offset="0.74" stop-color="#0E2419"/>
</linearGradient>
<linearGradient id="paint17_linear_1_224" x1="151.474" y1="277.264" x2="106.205" y2="277.264" gradientUnits="userSpaceOnUse">
<stop stop-color="#3C916A"/>
<stop offset="0.53" stop-color="#1D4A35"/>
<stop offset="1" stop-color="#0E2419"/>
</linearGradient>
<linearGradient id="paint18_linear_1_224" x1="413.876" y1="295.743" x2="320.049" y2="309.474" gradientUnits="userSpaceOnUse">
<stop stop-color="#3C916A"/>
<stop offset="0.53" stop-color="#1D4A35"/>
<stop offset="0.78" stop-color="#0E2419"/>
</linearGradient>
<linearGradient id="paint19_linear_1_224" x1="306.943" y1="276.755" x2="377.915" y2="276.755" gradientUnits="userSpaceOnUse">
<stop stop-color="#3C916A"/>
<stop offset="0.47" stop-color="#1D4A35"/>
<stop offset="0.78" stop-color="#0E2419"/>
</linearGradient>
<linearGradient id="paint20_linear_1_224" x1="219.761" y1="282.335" x2="260.538" y2="450.863" gradientUnits="userSpaceOnUse">
<stop stop-color="#3C916A"/>
<stop offset="1" stop-color="#1D4A35"/>
</linearGradient>
<linearGradient id="paint21_linear_1_224" x1="412.348" y1="221.453" x2="393.409" y2="246.693" gradientUnits="userSpaceOnUse">
<stop stop-color="#700A09"/>
<stop offset="0.43" stop-color="#9A1716"/>
<stop offset="0.79" stop-color="#B82120"/>
<stop offset="1" stop-color="#C42524"/>
</linearGradient>
<linearGradient id="paint22_linear_1_224" x1="461.485" y1="150.828" x2="470.67" y2="165.99" gradientUnits="userSpaceOnUse">
<stop stop-color="#700A09"/>
<stop offset="0.43" stop-color="#9A1716"/>
<stop offset="0.79" stop-color="#B82120"/>
<stop offset="1" stop-color="#C42524"/>
</linearGradient>
<linearGradient id="paint23_linear_1_224" x1="318.161" y1="11.3547" x2="316.774" y2="25.992" gradientUnits="userSpaceOnUse">
<stop stop-color="#700A09"/>
<stop offset="0.43" stop-color="#9A1716"/>
<stop offset="0.79" stop-color="#B82120"/>
<stop offset="1" stop-color="#C42524"/>
</linearGradient>
<linearGradient id="paint24_linear_1_224" x1="90.5534" y1="313.404" x2="95.6294" y2="331.677" gradientUnits="userSpaceOnUse">
<stop stop-color="#3C916A"/>
<stop offset="1" stop-color="#1D4A35"/>
</linearGradient>
<linearGradient id="paint25_linear_1_224" x1="332.821" y1="129.846" x2="348.788" y2="140.126" gradientUnits="userSpaceOnUse">
<stop stop-color="#3C916A"/>
<stop offset="1" stop-color="#1D4A35"/>
</linearGradient>
<linearGradient id="paint26_linear_1_224" x1="106.445" y1="161.429" x2="122.411" y2="171.71" gradientUnits="userSpaceOnUse">
<stop stop-color="#700A09"/>
<stop offset="0.43" stop-color="#9A1716"/>
<stop offset="0.79" stop-color="#B82120"/>
<stop offset="1" stop-color="#C42524"/>
</linearGradient>
<linearGradient id="paint27_linear_1_224" x1="460.119" y1="300.703" x2="476.112" y2="310.96" gradientUnits="userSpaceOnUse">
<stop stop-color="#3C916A"/>
<stop offset="1" stop-color="#1D4A35"/>
</linearGradient>
<linearGradient id="paint28_linear_1_224" x1="158.267" y1="5.19235" x2="183.642" y2="21.5221" gradientUnits="userSpaceOnUse">
<stop stop-color="#3C916A"/>
<stop offset="1" stop-color="#1D4A35"/>
</linearGradient>
<linearGradient id="paint29_linear_1_224" x1="7.14021" y1="147.775" x2="18.0739" y2="131.578" gradientUnits="userSpaceOnUse">
<stop stop-color="#3C916A"/>
<stop offset="1" stop-color="#1D4A35"/>
</linearGradient>
<linearGradient id="paint30_linear_1_224" x1="6.33172" y1="283.207" x2="19.6126" y2="256.843" gradientUnits="userSpaceOnUse">
<stop stop-color="#700A09"/>
<stop offset="0.43" stop-color="#9A1716"/>
<stop offset="0.79" stop-color="#B82120"/>
<stop offset="1" stop-color="#C42524"/>
</linearGradient>
</defs>
</svg>
